<?xml version="1.0" encoding="utf-8"?>
<!-- Generator: Adobe Illustrator 26.0.3, SVG Export Plug-In . SVG Version: 6.00 Build 0)  -->
<svg version="1.1" id="_x2014_ÎÓÈ_x5F_1" xmlns="http://www.w3.org/2000/svg" xmlns:xlink="http://www.w3.org/1999/xlink"
	 x="0px" y="0px" viewBox="0 0 3200 2000" style="enable-background:new 0 0 3200 2000;" xml:space="preserve">
<style type="text/css">
	.st0{fill:#231F20;}
	.st1{fill:#2D6935;}
	.st2{fill:#FFF6ED;}
	.st3{fill:#FBB033;}
	.st4{fill:#EF4647;}
	.st5{fill:#FFFFFF;}
</style>
<g>
	<g>
		<g>
			<g>
				<ellipse class="st0" cx="2694" cy="380.3" rx="34.5" ry="34.5"/>
			</g>
			<g>
				<ellipse class="st0" cx="2832.2" cy="380.2" rx="34.5" ry="34.5"/>
			</g>
			<g>
				<ellipse class="st0" cx="2970.3" cy="380.2" rx="34.5" ry="34.5"/>
			</g>
			<g>
				<ellipse class="st0" cx="2761.2" cy="449.3" rx="34.5" ry="34.5"/>
			</g>
			<g>
				<ellipse class="st0" cx="2899.3" cy="449.3" rx="34.5" ry="34.5"/>
			</g>
			<g>
				<ellipse class="st0" cx="2693.1" cy="518.4" rx="34.5" ry="34.5"/>
			</g>
			<g>
				<ellipse class="st0" cx="2831.3" cy="518.5" rx="34.5" ry="34.5"/>
			</g>
			<g>
				<ellipse class="st0" cx="2969.3" cy="518.4" rx="34.5" ry="34.5"/>
			</g>
			<g>
				<circle class="st0" cx="2760.2" cy="587.4" r="34.5"/>
			</g>
			<g>
				<circle class="st0" cx="2898.3" cy="587.4" r="34.5"/>
			</g>
			<g>
				<ellipse class="st0" cx="2692.2" cy="656.5" rx="34.5" ry="34.5"/>
			</g>
			<g>
				<ellipse class="st0" cx="2830.3" cy="656.7" rx="34.5" ry="34.5"/>
			</g>
			<g>
				<ellipse class="st0" cx="2968.4" cy="656.5" rx="34.5" ry="34.5"/>
			</g>
		</g>
		<g>
			<g>
				<ellipse class="st0" cx="1754.9" cy="1220.6" rx="34.5" ry="34.5"/>
			</g>
			<g>
				<ellipse class="st0" cx="1893" cy="1220.6" rx="34.5" ry="34.5"/>
			</g>
			<g>
				<ellipse class="st0" cx="2031.1" cy="1220.8" rx="34.5" ry="34.5"/>
			</g>
			<g>
				<ellipse class="st0" cx="1822" cy="1289.7" rx="34.5" ry="34.5"/>
			</g>
			<g>
				<ellipse class="st0" cx="1960.2" cy="1289.7" rx="34.5" ry="34.5"/>
			</g>
			<g>
				<ellipse class="st0" cx="1753.8" cy="1358.8" rx="34.5" ry="34.5"/>
			</g>
			<g>
				<ellipse class="st0" cx="1892" cy="1358.7" rx="34.5" ry="34.5"/>
			</g>
			<g>
				<ellipse class="st0" cx="2030.1" cy="1358.9" rx="34.5" ry="34.5"/>
			</g>
			<g>
				<circle class="st0" cx="1821" cy="1427.8" r="34.5"/>
			</g>
			<g>
				<circle class="st0" cx="1959.1" cy="1427.8" r="34.5"/>
			</g>
			<g>
				<ellipse class="st0" cx="1752.9" cy="1497" rx="34.5" ry="34.5"/>
			</g>
			<g>
				<ellipse class="st0" cx="1891.1" cy="1496.9" rx="34.5" ry="34.5"/>
			</g>
			<g>
				<ellipse class="st0" cx="2029.2" cy="1497" rx="34.5" ry="34.5"/>
			</g>
		</g>
		<g>
			<g>
				<rect x="2178.9" y="1326.3" class="st1" width="218.6" height="167.1"/>
			</g>
			<g>
				<path class="st0" d="M2399.4,1495.3h-222.5v-170.9h222.5V1495.3z M2180.8,1491.4h214.7v-163.2h-214.7V1491.4L2180.8,1491.4z"/>
			</g>
			<g>
				<rect x="2158.5" y="1326.3" class="st2" width="218.6" height="167.1"/>
			</g>
			<g>
				<polygon class="st1" points="2377.1,1358.7 2158.5,1476.8 2158.5,1358.7 				"/>
			</g>
			<g>
				<path class="st1" d="M2463.7,1525.8h-351v-9.3c0-12.8,10.3-23.1,23.1-23.1h304.8c12.8,0,23.1,10.3,23.1,23.1V1525.8z"/>
			</g>
			<g>
				<path class="st0" d="M2465.6,1527.7h-354.9v-11.3c0-13.8,11.2-25,25-25h304.8c13.8,0,25,11.2,25,25v11.3H2465.6z M2114.6,1523.9
					h347.1v-7.4c0-11.7-9.5-21.2-21.2-21.2h-304.8c-11.7,0-21.2,9.5-21.2,21.2L2114.6,1523.9L2114.6,1523.9z"/>
			</g>
			<g>
				<path class="st2" d="M2443.3,1525.8h-351v-9.3c0-12.8,10.3-23.1,23.1-23.1h304.8c12.8,0,23.1,10.3,23.1,23.1V1525.8z"/>
			</g>
			<g>
				<path class="st0" d="M2379,1495.3h-222.5v-170.9H2379V1495.3z M2160.4,1491.4h214.7v-163.2h-214.7V1491.4z"/>
			</g>
			<g>
				<path class="st0" d="M2445.2,1527.7h-354.9v-11.3c0-13.8,11.2-25,25-25h304.8c13.8,0,25,11.2,25,25v11.3H2445.2z M2094.2,1523.9
					h347.1v-7.4c0-11.7-9.5-21.2-21.2-21.2h-304.8c-11.7,0-21.2,9.5-21.2,21.2L2094.2,1523.9L2094.2,1523.9z"/>
			</g>
			<g>
				<path class="st1" d="M2844.6,1358.7H1744.2c-18.9,0-34.3-15.3-34.3-34.3V670.8c0-18.9,15.3-34.3,34.3-34.3h1100.4
					c18.9,0,34.3,15.3,34.3,34.3v653.6C2878.9,1343.4,2863.5,1358.7,2844.6,1358.7z"/>
			</g>
			<g>
				<path class="st0" d="M2844.6,1360.7H1744.2c-20,0-36.2-16.2-36.2-36.2V670.8c0-20,16.2-36.2,36.2-36.2h1100.4
					c20,0,36.2,16.2,36.2,36.2v653.6C2880.8,1344.4,2864.6,1360.7,2844.6,1360.7z M1744.2,638.5c-17.8,0-32.3,14.5-32.3,32.3v653.6
					c0,17.8,14.5,32.3,32.3,32.3h1100.4c17.8,0,32.3-14.5,32.3-32.3V670.8c0-17.8-14.5-32.3-32.3-32.3H1744.2z"/>
			</g>
			<g>
				<path class="st2" d="M2818,1358.7H1717.6c-18.9,0-34.3-15.3-34.3-34.3V670.8c0-18.9,15.3-34.3,34.3-34.3H2818
					c18.9,0,34.3,15.3,34.3,34.3v653.6C2852.3,1343.4,2836.9,1358.7,2818,1358.7z"/>
			</g>
			<g>
				<rect x="1710" y="663.8" class="st3" width="1115.7" height="602.5"/>
			</g>
			<g>
				<path class="st0" d="M2818,1360.7H1717.6c-20,0-36.2-16.2-36.2-36.2V670.8c0-20,16.2-36.2,36.2-36.2H2818
					c20,0,36.2,16.2,36.2,36.2v653.6C2854.2,1344.4,2838,1360.7,2818,1360.7z M1717.6,638.5c-17.8,0-32.3,14.5-32.3,32.3v653.6
					c0,17.8,14.5,32.3,32.3,32.3H2818c17.8,0,32.3-14.5,32.3-32.3V670.8c0-17.8-14.5-32.3-32.3-32.3H1717.6z"/>
			</g>
			<g>
				<path class="st0" d="M2827.6,1268.2H1708V661.9h1119.5L2827.6,1268.2L2827.6,1268.2z M1711.9,1264.3h1111.8V665.7H1711.9V1264.3
					z"/>
			</g>
			<g>
				<ellipse class="st0" cx="2267.9" cy="1311.7" rx="10.7" ry="10.7"/>
			</g>
		</g>
		<g>
			<rect x="1483.2" y="1270.6" class="st3" width="153.3" height="215.4"/>
		</g>
		<g>
			<path class="st1" d="M1559.9,1368.8c-18.4,0-33.4-15-33.4-33.4s15-33.4,33.4-33.4c18.4,0,33.4,15,33.4,33.4
				C1593.4,1353.8,1578.4,1368.8,1559.9,1368.8z M1559.9,1304.5c-17,0-30.9,13.8-30.9,30.9c0,17,13.8,30.9,30.9,30.9
				c17,0,30.9-13.8,30.9-30.9C1590.8,1318.3,1576.9,1304.5,1559.9,1304.5z"/>
		</g>
		<g>
			<rect x="1518.9" y="1391.6" class="st4" width="82.1" height="7.8"/>
		</g>
		<g>
			<rect x="1518.9" y="1410.2" class="st4" width="82.1" height="7.8"/>
		</g>
		<g>
			<rect x="1518.9" y="1426.6" class="st4" width="82.1" height="7.8"/>
		</g>
		<g>
			<g>
				<path class="st1" d="M2634.4,1418.4h11.2l-0.1,14.1l12.1-7.2l5.6,10.1l-12.5,6.8l12.5,6.9l-5.6,10.1l-12.2-7.2l0.3,14h-11.2
					l0.3-14.1l-12.2,7.2l-5.6-9.9l12.4-6.9l-12.4-6.8l5.6-10.2l12.2,7.3L2634.4,1418.4z"/>
			</g>
			<g>
				<path class="st1" d="M2730.6,1418.4h11.2l-0.1,14.1l12.1-7.2l5.6,10.1l-12.5,6.8l12.5,6.9l-5.6,10.1l-12.2-7.2l0.3,14h-11.2
					l0.3-14.1l-12.2,7.2l-5.6-9.9l12.4-6.9l-12.4-6.8l5.6-10.2l12.2,7.3L2730.6,1418.4z"/>
			</g>
			<g>
				<path class="st1" d="M2826.8,1418.4h11.2l-0.1,14.1l12.1-7.2l5.6,10.1l-12.5,6.8l12.5,6.9l-5.6,10.1l-12.2-7.2l0.3,14h-11.2
					l0.3-14.1l-12.2,7.2l-5.6-9.9l12.4-6.9l-12.4-6.8l5.6-10.2l12.2,7.3L2826.8,1418.4z"/>
			</g>
			<g>
				<path class="st1" d="M2923,1418.4h11.2l-0.1,14.1l12.1-7.2l5.6,10.1l-12.5,6.8l12.5,6.9l-5.6,10.1l-12.2-7.2l0.3,14h-11.2
					l0.3-14.1l-12.2,7.2l-5.6-9.9l12.4-6.9l-12.4-6.8l5.6-10.2l12.2,7.3L2923,1418.4z"/>
			</g>
			<g>
				<path class="st1" d="M3019.1,1418.4h11.2l-0.1,14.1l12.1-7.2l5.6,10.1l-12.5,6.8l12.5,6.9l-5.6,10.1l-12.2-7.2l0.3,14h-11.2
					l0.3-14.1l-12.2,7.2l-5.6-9.9l12.4-6.9l-12.4-6.8l5.6-10.2l12.2,7.3L3019.1,1418.4z"/>
			</g>
		</g>
		<g>
			<rect x="2294.3" y="1079.2" class="st5" width="470" height="86.7"/>
		</g>
		<g>
			<path class="st0" d="M2755.3,1159h-473.9v-90.6h473.9V1159z M2285.3,1155.1h466.1v-82.9h-466.1V1155.1z"/>
		</g>
		<g>
			<polygon class="st0" points="2759.6,1250.1 2623.1,1117.2 2644.2,1306.6 2683.5,1265.4 2715.8,1331.5 2735.4,1322 2703,1255.9 
							"/>
		</g>
		<g>
			<path class="st4" d="M2057.4,723h-707.9c-11.4,0-20.6,9.2-20.6,20.6v35.3H2078v-35.3C2078,732.2,2068.8,723,2057.4,723z"/>
		</g>
		<g>
			<rect x="1559.8" y="817.4" class="st2" width="358.6" height="411.6"/>
		</g>
		<g>
			<rect x="1386.1" y="952.1" class="st4" width="111.9" height="15"/>
		</g>
		<g>
			<rect x="1586.6" y="847.1" class="st3" width="82.5" height="22.7"/>
		</g>
		<g>
			<rect x="1395.5" y="974.5" class="st4" width="92.6" height="15"/>
		</g>
		<g>
			<g>
				<g>
					<rect x="1586.2" y="901.6" class="st3" width="305.8" height="8.6"/>
				</g>
			</g>
			<g>
				<g>
					<rect x="1586.2" y="919.9" class="st3" width="305.8" height="8.6"/>
				</g>
			</g>
			<g>
				<g>
					<rect x="1586.2" y="883.3" class="st3" width="305.8" height="8.6"/>
				</g>
			</g>
		</g>
		<g>
			<g>
				<rect x="1392.5" y="1021.1" class="st3" width="99.4" height="4.1"/>
			</g>
			<g>
				<rect x="1401.2" y="1031.4" class="st3" width="82" height="3.4"/>
			</g>
			<g>
				<rect x="1414.1" y="1041.4" class="st3" width="56.2" height="3.4"/>
			</g>
		</g>
		<g>
			<path class="st0" d="M2079.9,1202.8h-753V743.6c0-12.4,10.1-22.5,22.5-22.5h707.9c12.4,0,22.5,10.1,22.5,22.5L2079.9,1202.8
				L2079.9,1202.8z M1330.8,1198.9h745.3V743.6c0-10.3-8.4-18.7-18.7-18.7h-707.9c-10.3,0-18.7,8.4-18.7,18.7L1330.8,1198.9
				L1330.8,1198.9z"/>
		</g>
		<g>
			<path class="st0" d="M1364.6,762.2c-5.7,0-10.3-4.6-10.3-10.3s4.6-10.3,10.3-10.3s10.3,4.6,10.3,10.3S1370.3,762.2,1364.6,762.2z
				 M1364.6,745.5c-3.6,0-6.4,2.9-6.4,6.4c0,3.6,2.9,6.4,6.4,6.4c3.6,0,6.4-2.9,6.4-6.4C1371,748.3,1368.1,745.5,1364.6,745.5z"/>
		</g>
		<g>
			<path class="st0" d="M1392.5,762.2c-5.7,0-10.3-4.6-10.3-10.3s4.6-10.3,10.3-10.3c5.7,0,10.3,4.6,10.3,10.3
				S1398.2,762.2,1392.5,762.2z M1392.5,745.5c-3.6,0-6.4,2.9-6.4,6.4c0,3.6,2.9,6.4,6.4,6.4c3.6,0,6.4-2.9,6.4-6.4
				C1399,748.3,1396.1,745.5,1392.5,745.5z"/>
		</g>
		<g>
			<path class="st0" d="M1420.4,762.2c-5.7,0-10.3-4.6-10.3-10.3s4.6-10.3,10.3-10.3c5.7,0,10.3,4.6,10.3,10.3
				C1430.8,757.6,1426.1,762.2,1420.4,762.2z M1420.4,745.5c-3.6,0-6.4,2.9-6.4,6.4c0,3.6,2.9,6.4,6.4,6.4s6.4-2.9,6.4-6.4
				C1426.9,748.3,1424,745.5,1420.4,745.5z"/>
		</g>
		<g>
			<path class="st0" d="M2079.9,780.8h-753v-37.2c0-12.4,10.1-22.5,22.5-22.5h707.9c12.4,0,22.5,10.1,22.5,22.5L2079.9,780.8
				L2079.9,780.8z M1330.8,776.9h745.3v-33.3c0-10.3-8.4-18.7-18.7-18.7h-707.9c-10.3,0-18.7,8.4-18.7,18.7L1330.8,776.9
				L1330.8,776.9z"/>
		</g>
		<g>
			<rect x="3022.5" y="1045" class="st3" width="21.3" height="21.3"/>
		</g>
		<g>
			<rect x="3022.5" y="1092.1" class="st3" width="21.3" height="21.3"/>
		</g>
		<g>
			<rect x="1527.8" y="618.4" class="st3" width="21.3" height="21.3"/>
		</g>
		<g>
			<rect x="2067.3" y="305.3" class="st3" width="21.3" height="21.3"/>
		</g>
		<g>
			<rect x="2549.6" y="1605" class="st3" width="21.3" height="21.3"/>
		</g>
		<g>
			<rect x="2974.7" y="1045" class="st3" width="21.3" height="21.3"/>
		</g>
		<g>
			<rect x="2974.7" y="1092.1" class="st1" width="21.3" height="21.3"/>
		</g>
		<g>
			<rect x="2467" y="431" class="st1" width="21.3" height="21.3"/>
		</g>
		<g>
			<g>
				<rect x="2283.3" y="573.6" class="st2" width="749.1" height="422"/>
			</g>
			<g>
				<g>
					<rect x="2394.3" y="916.1" class="st1" width="155.3" height="41.7"/>
				</g>
				<g>
					<path class="st0" d="M2607.2,892.4h-270.5v-39h270.5V892.4z M2340.6,888.6h262.8v-31.3h-262.8V888.6z"/>
				</g>
				<g>
					<path class="st0" d="M2607.2,822.4h-270.5v-39h270.5V822.4z M2340.6,818.5h262.8v-31.3h-262.8V818.5z"/>
				</g>
				<g>
					<rect x="2405.8" y="623" class="st4" width="143.8" height="32.3"/>
				</g>
				<g>
					<rect x="2344.4" y="678.1" class="st3" width="266.6" height="9.1"/>
				</g>
				<g>
					<rect x="2367.8" y="695.2" class="st3" width="219.9" height="7.4"/>
				</g>
				<g>
					<rect x="2402.4" y="711.6" class="st3" width="150.7" height="7.4"/>
				</g>
				<g>
					<rect x="2336.7" y="766.7" class="st3" width="67.2" height="7.4"/>
				</g>
				<g>
					<rect x="2336.7" y="837.8" class="st3" width="67.2" height="7.4"/>
				</g>
				<g>
					<path class="st1" d="M3011.9,517.7h-708c-11.4,0-20.6,9.2-20.6,20.6v35.3h749.1v-35.3C3032.5,527,3023.2,517.7,3011.9,517.7z"
						/>
				</g>
				<g>
					<path class="st0" d="M3034.4,997.5h-753V538.3c0-12.4,10.1-22.5,22.5-22.5h708c12.4,0,22.5,10.1,22.5,22.5V997.5z
						 M2285.3,993.7h745.3V538.3c0-10.3-8.4-18.7-18.7-18.7h-708c-10.3,0-18.7,8.4-18.7,18.7v455.4H2285.3z"/>
				</g>
				<g>
					<rect x="2283.3" y="571.7" class="st0" width="749.1" height="3.9"/>
				</g>
				<g>
					<path class="st0" d="M2319.1,556.9c-5.7,0-10.3-4.6-10.3-10.3s4.6-10.3,10.3-10.3c5.7,0,10.3,4.6,10.3,10.3
						C2329.4,552.3,2324.8,556.9,2319.1,556.9z M2319.1,540.2c-3.6,0-6.4,2.9-6.4,6.4c0,3.6,2.9,6.4,6.4,6.4s6.4-2.9,6.4-6.4
						S2322.6,540.2,2319.1,540.2z"/>
				</g>
				<g>
					<path class="st0" d="M2347,556.9c-5.7,0-10.3-4.6-10.3-10.3s4.6-10.3,10.3-10.3c5.7,0,10.3,4.6,10.3,10.3
						C2357.3,552.3,2352.7,556.9,2347,556.9z M2347,540.2c-3.6,0-6.4,2.9-6.4,6.4c0,3.6,2.9,6.4,6.4,6.4c3.6,0,6.4-2.9,6.4-6.4
						S2350.6,540.2,2347,540.2z"/>
				</g>
				<g>
					<path class="st0" d="M2374.9,556.9c-5.7,0-10.3-4.6-10.3-10.3s4.6-10.3,10.3-10.3c5.7,0,10.3,4.6,10.3,10.3
						C2385.2,552.3,2380.6,556.9,2374.9,556.9z M2374.9,540.2c-3.6,0-6.4,2.9-6.4,6.4c0,3.6,2.9,6.4,6.4,6.4s6.4-2.9,6.4-6.4
						C2381.4,543.1,2378.5,540.2,2374.9,540.2z"/>
				</g>
				<g>
					<rect x="2657.9" y="597" class="st4" width="351.4" height="367.2"/>
				</g>
				<g>
					<path class="st3" d="M2783.5,678.2l-0.6-3.4c68.7-11.6,89.5-35.1,108-80.2l3.2,1.3C2875.1,642.2,2853.8,666.3,2783.5,678.2z"/>
				</g>
				<g>
					<path class="st3" d="M2906.2,966.2l-3.3-1.1c16.9-48.3,68.2-75.4,107.9-76.4l0.1,3.5C2972.4,893,2922.6,919.3,2906.2,966.2z"/>
				</g>
				<g>
					<path class="st3" d="M2702.6,630.7c-12.9,0-28.1-1.8-46.3-6l0.8-3.4c72.4,16.6,95.7-4.3,113.3-27.2l2.7,2.1
						C2759.9,613.5,2742.4,630.7,2702.6,630.7z"/>
				</g>
				<g>
					<path class="st3" d="M2657.2,862.7l-2.9-1.8c29-46.5,75.7-80.9,128-94.3c10.7-2.8,24.8-5.5,38.8-2.6c3.5,0.7,6.9,1.8,10,3.3
						c9.4-4.6,20.1-8.6,32.1-12.1c8.5-2.5,17.3-4.7,25.8-6.8c20.4-5.1,41.5-10.3,60.3-20.1c20.1-10.4,41.4-25.9,60.9-88.5l3.3,1
						c-19.9,63.9-41.9,79.8-62.6,90.6c-19.2,9.9-40.4,15.3-61,20.4c-8.5,2.1-17.2,4.3-25.7,6.8c-10.8,3.2-20.5,6.8-29.2,10.8
						c7.7,4.4,13.6,10.9,16.4,18.4c7.3,19.4-5.9,40.7-22.8,51.8c-7.7,5-14.7,7.7-21.6,8.1c-8.7,0.5-16.8-2.9-21.3-9
						c-7.5-10.1-3.7-24.4,2.3-34.4c8.4-14,21.3-25.6,39.1-34.9c-2.1-0.8-4.4-1.5-6.7-1.9c-13.2-2.8-26.8-0.1-37.2,2.6
						C2731.7,783.1,2685.8,816.9,2657.2,862.7z M2831.1,771c-18.4,9.3-31.7,20.8-40.2,34.9c-5.4,9.1-9,21.8-2.5,30.5
						c3.8,5.1,10.8,8.1,18.3,7.6c6.2-0.4,12.7-2.8,19.9-7.5c15.7-10.3,28.2-30,21.5-47.7C2845.4,781.3,2839.2,775,2831.1,771z"/>
				</g>
				<g>
					<path class="st3" d="M2656.4,789.8l-2.5-2.3c35-38,81.8-64.2,131.8-73.6c10.5-2,21.2-3.1,31.6-4.2c11.7-1.2,23.8-2.5,35.5-5
						c67.3-14.4,105.6-52.2,111-109.6l3.4,0.3c-5.5,59-44.8,97.9-113.7,112.6c-11.8,2.5-24,3.8-35.8,5c-10.3,1.1-21,2.2-31.3,4.1
						C2737.1,726.5,2690.9,752.3,2656.4,789.8z"/>
				</g>
				<g>
					<path class="st3" d="M2751.4,966.2l-3.2-1.2c7-18.9,29.4-26.5,46.4-27.1c5.6-0.2,11.3-0.1,16.8,0.1c12.5,0.3,25.3,0.7,37.1-3.3
						c18.9-6.4,32.3-22.9,45.2-38.9c13.7-16.8,27.8-34.2,48.5-40.3c9.3-2.7,19.1-2.9,28.5-3c5.3-0.1,10.8-0.2,16.2-0.7
						c8.8-0.9,17-3.7,23-7.7l1.9,2.9c-6.5,4.4-15.3,7.3-24.6,8.3c-5.5,0.6-11.1,0.6-16.5,0.7c-9.2,0.1-18.7,0.3-27.6,2.9
						c-19.7,5.8-32.9,22-46.8,39.2c-13.3,16.3-27,33.2-46.8,40c-12.3,4.2-25.5,3.8-38.3,3.5c-5.5-0.1-11.1-0.3-16.6-0.1
						C2778.7,941.9,2757.8,948.8,2751.4,966.2z"/>
				</g>
				<g>
					<path class="st3" d="M2657.2,692.9l-2.8-2c12-16.5,35.8-31,63.7-38.9c8.2-2.3,19.1-3.6,29.6-4.9c8-1,15.6-1.9,21.7-3.2
						c26.9-5.7,47.9-22.4,62.7-49.5l3,1.6c-15.2,28.1-37.1,45.4-65,51.3c-6.3,1.3-13.9,2.2-22,3.2c-10.4,1.2-21.1,2.5-29.1,4.8
						C2691.9,663,2668.8,677.1,2657.2,692.9z"/>
				</g>
				<g>
					<path class="st3" d="M2676.3,965.9l-3.4-0.7c10.2-52.7,24.1-70.4,35-80c15.1-13.3,40.5-16.7,61.7-8.3c4,1.6,7.8,3.5,11.5,5.4
						c6.7,3.4,13,6.7,20.1,7.8c15.4,2.6,32.7-5.7,46.4-22.1c6.2-7.5,11.4-16,16.5-24.2c4.5-7.3,9.2-14.9,14.6-21.8
						c14-18,31.6-27.6,48.2-26.5c6.2,0.4,12.2,2.3,18,4.2c3.2,1,6.4,2.1,9.7,2.8c18.9,4.5,40.1-0.1,55.5-12.1l2.1,2.7
						c-16.2,12.6-38.5,17.5-58.4,12.8c-3.4-0.8-6.7-1.9-9.9-2.9c-5.8-1.9-11.3-3.6-17.1-4c-21.9-1.5-38.9,17.1-45.2,25.2
						c-5.3,6.8-9.9,14.3-14.3,21.5c-5.1,8.3-10.4,16.9-16.8,24.6c-14.4,17.4-33,26.1-49.6,23.3c-7.6-1.3-14.4-4.8-21.1-8.1
						c-3.6-1.9-7.4-3.8-11.2-5.3c-20.1-7.9-44-4.7-58.1,7.7C2699.7,897,2686.4,914.3,2676.3,965.9z"/>
				</g>
				<g>
					<path class="st3" d="M2970.4,762.7l-0.4-3.4c0.2,0,23.5-3.2,39.7-19.7l2.5,2.4C2995.1,759.4,2971.4,762.6,2970.4,762.7z"/>
				</g>
			</g>
		</g>
		<g>
			<rect x="1951.4" y="817.4" class="st2" width="286.7" height="107.6"/>
		</g>
		<g>
			<rect x="1951.4" y="941.6" class="st2" width="286.7" height="107.6"/>
		</g>
		<g>
			<rect x="1951.4" y="1068.9" class="st2" width="286.7" height="107.6"/>
		</g>
		<g>
			<g>
				<g>
					<rect x="2050.7" y="842.8" class="st3" width="143" height="9.7"/>
				</g>
			</g>
			<g>
				<g>
					<rect x="2050.7" y="863.4" class="st3" width="143" height="9.7"/>
				</g>
			</g>
			<g>
				<g>
					<rect x="2050.7" y="884" class="st3" width="116.9" height="9.7"/>
				</g>
			</g>
		</g>
		<g>
			<g>
				<g>
					<rect x="2050.7" y="968.4" class="st3" width="143" height="9.7"/>
				</g>
			</g>
			<g>
				<g>
					<rect x="2050.7" y="989" class="st3" width="143" height="9.7"/>
				</g>
			</g>
			<g>
				<g>
					<rect x="2050.7" y="1009.6" class="st3" width="116.9" height="9.7"/>
				</g>
			</g>
		</g>
		<g>
			<g>
				<g>
					<rect x="2052.9" y="1097.2" class="st3" width="143" height="9.7"/>
				</g>
			</g>
			<g>
				<g>
					<rect x="2052.9" y="1117.8" class="st3" width="143" height="9.7"/>
				</g>
			</g>
			<g>
				<g>
					<rect x="2052.9" y="1138.5" class="st3" width="116.9" height="9.7"/>
				</g>
			</g>
		</g>
		<g>
			<g>
				<g>
					<path class="st0" d="M1897.4,687.9h75.2c0,0-4-43.8,31-78.9l-67-162v152.7c4.3,0.8,7.6,4.5,7.6,9.1c0,5.1-4.1,9.2-9.2,9.2
						c-5.1,0-9.2-4.1-9.2-9.2c0-4.6,3.3-8.3,7.6-9.1V446.9l-67,162C1901.4,644,1897.4,687.9,1897.4,687.9z"/>
				</g>
				<g>
					<rect x="1894" y="690.7" class="st0" width="82" height="15.4"/>
				</g>
			</g>
			<g>
				<path class="st4" d="M1607.6,504.1h-22.3v-22.3h22.3V504.1z M1587.9,501.5h17.1v-17.1h-17.1V501.5z"/>
			</g>
			<g>
				<path class="st4" d="M2259.9,376.4h-22.3v-22.3h22.3V376.4z M2240.2,373.9h17.1v-17.2h-17.1V373.9z"/>
			</g>
			<g>
				<path class="st4" d="M2042.1,448.1c-30.3,0-63.2-5-97.7-17.9l0.9-2.4c84,31.6,159.1,15.2,207.3-4.2c52.3-21,85.1-50,85.5-50.2
					l1.7,1.9c-0.3,0.3-33.4,29.5-86.1,50.7C2124.8,437.5,2086.3,448.1,2042.1,448.1z"/>
			</g>
			<g>
				<path class="st4" d="M1607.2,484l-1.9-1.8c0.3-0.3,32.6-34.1,87.9-58.4c51.1-22.4,132.8-41,232.3-2.8l-0.9,2.4
					c-98.6-37.9-179.7-19.5-230.3,2.7C1639.5,450.2,1607.6,483.6,1607.2,484z"/>
			</g>
			<g>
				
					<rect x="1833.4" y="294" transform="matrix(0.3349 -0.9423 0.9423 0.3349 853.2687 1988.743)" class="st0" width="3.9" height="191.9"/>
			</g>
			<g>
				
					<rect x="2032.8" y="364.9" transform="matrix(0.3349 -0.9423 0.9423 0.3349 919.075 2223.7864)" class="st0" width="3.9" height="191.9"/>
			</g>
			<g>
				<path class="st0" d="M1738,355.5c1.4-3.8,5.6-5.8,9.4-4.5c3.8,1.4,5.8,5.6,4.5,9.4s-5.6,5.8-9.4,4.5
					C1738.6,363.5,1736.6,359.3,1738,355.5z"/>
			</g>
			<g>
				<ellipse transform="matrix(0.9031 -0.4295 0.4295 0.9031 -5.766 960.4628)" class="st0" cx="2125" cy="493" rx="7.3" ry="7.3"/>
			</g>
			<g>
				<path class="st4" d="M1946.1,436.6h-22.3v-22.3h22.3V436.6z M1926.4,434.1h17.1V417h-17.1V434.1z"/>
			</g>
		</g>
		<g>
			<rect x="1976" y="842.8" class="st1" width="50.7" height="50.7"/>
		</g>
		<g>
			<rect x="1976" y="968.5" class="st1" width="50.7" height="50.7"/>
		</g>
		<g>
			<rect x="1976" y="1097.3" class="st1" width="50.7" height="50.7"/>
		</g>
		<g>
			<rect x="1386.5" y="817.4" class="st1" width="111.5" height="111.5"/>
		</g>
		<g>
			<g>
				<path class="st2" d="M1412.6,915.2c-0.3,2,0.2,7.5-2.6,13.7h48.9c-6.5-10.9-6.4-23-6.4-23c16.8-0.2,25.2-11.4,24.5-33.4
					s-9.9-46.7-32.7-46.1c-22.8,0.6-40.2,11.6-38.9,39.9C1406.8,894.5,1414.5,904.4,1412.6,915.2z"/>
			</g>
			<g>
				<g>
					<path class="st0" d="M1411.9,904.2c0,0,6-2.9,11.1-10.4c1.6-2.4,3.2-6.4,4.3-9.3c0.7-1.8-0.3-3.7-2.1-4.3
						c-2.1-0.7-4.5-2.3-5.8-6c-2.4-7.1,1.2-11.1,4.9-11.4c3.4-0.3,6.9,2.8,8.2,7.6c0.1,0.5,0.6,0.8,1.1,0.7l3.2-0.8
						c0.5-0.1,0.8-0.6,0.7-1c-0.5-3.1-2.1-14,1.2-16.7c3.8-3.2,31.4-6.1,33.7-6.5c2.3-0.4-4.2-24.7-35.8-20.9
						c-31.6,3.7-35,30.7-32.2,47.1S1411.9,904.2,1411.9,904.2z"/>
				</g>
				<g>
					<g>
						<path class="st0" d="M1462.3,879.1c-0.5,0-0.9-0.4-1-0.9c-0.1-0.6,0.3-1.1,0.9-1.1l6-0.7l-2.5-11.8c-0.1-0.5,0.2-1.1,0.8-1.2
							c0.6-0.1,1.1,0.2,1.2,0.8l2.7,12.8c0.1,0.3,0,0.6-0.2,0.8s-0.4,0.4-0.7,0.4l-7.1,0.8C1462.4,879.1,1462.4,879.1,1462.3,879.1z
							"/>
					</g>
				</g>
			</g>
		</g>
		<g>
			<g>
				<rect x="1647.8" y="957.4" class="st4" width="173.1" height="176.2"/>
			</g>
			<g>
				<path class="st1" d="M1701.4,1156.7c0-3.1,2.5-5.6,5.6-5.6c3.1,0,5.6,2.5,5.6,5.6s-2.5,5.6-5.6,5.6
					C1703.9,1162.3,1701.4,1159.8,1701.4,1156.7z"/>
			</g>
			<g>
				<circle class="st1" cx="1732" cy="1156.7" r="5.6"/>
			</g>
			<g>
				<path class="st1" d="M1751.3,1156.7c0-3.1,2.5-5.6,5.6-5.6c3.1,0,5.6,2.5,5.6,5.6s-2.5,5.6-5.6,5.6
					C1753.8,1162.3,1751.3,1159.8,1751.3,1156.7z"/>
			</g>
			<g>
				<polygon class="st0" points="1620.2,1074.3 1590.5,1044.6 1620.9,1014.2 1623.7,1016.9 1595.9,1044.6 1622.9,1071.6 				"/>
			</g>
			<g>
				<polygon class="st0" points="1854.5,1074.3 1851.7,1071.6 1879.5,1043.9 1852.5,1016.9 1855.2,1014.2 1884.9,1043.9 				"/>
			</g>
		</g>
	</g>
</g>
</svg>
