<svg xmlns="http://www.w3.org/2000/svg" width="24.501" height="20.147" viewBox="0 0 24.501 20.147">
  <path id="Icon_material-more" data-name="Icon material-more" d="M22.459,0H7.146A1.89,1.89,0,0,0,5.523.985L0,10.074l5.523,9.077a2.016,2.016,0,0,0,1.695,1H22.459A2.153,2.153,0,0,0,24.5,17.909V2.239A2.153,2.153,0,0,0,22.459,0ZM9.188,11.753a1.608,1.608,0,0,1-1.531-1.679A1.608,1.608,0,0,1,9.188,8.395a1.608,1.608,0,0,1,1.531,1.679A1.608,1.608,0,0,1,9.188,11.753Zm5.1,0a1.608,1.608,0,0,1-1.531-1.679,1.608,1.608,0,0,1,1.531-1.679,1.608,1.608,0,0,1,1.531,1.679A1.608,1.608,0,0,1,14.292,11.753Zm5.1,0a1.608,1.608,0,0,1-1.531-1.679,1.538,1.538,0,1,1,3.063,0A1.608,1.608,0,0,1,19.4,11.753Z" transform="translate(24.501 20.147) rotate(180)"/>
</svg>
