<svg xmlns="http://www.w3.org/2000/svg" width="35" height="35" viewBox="0 0 35 35">
  <g id="Icon_close" data-name="Icon close" transform="translate(0 -0.271)">
    <circle id="Background" cx="17.5" cy="17.5" r="17.5" transform="translate(0 0.271)" fill="#fff"/>
    <path id="Icon_close-2" data-name="Icon close" d="M7.866,17.1l-.14-5.91-5.91-.14A1.879,1.879,0,0,1,0,9.234,1.675,1.675,0,0,1,1.732,7.5l5.91.14L7.5,1.732A1.675,1.675,0,0,1,9.234,0,1.879,1.879,0,0,1,11.05,1.816l.14,5.91,5.91.14a1.878,1.878,0,0,1,1.816,1.816,1.676,1.676,0,0,1-1.732,1.732l-5.91-.14.14,5.91a1.676,1.676,0,0,1-1.732,1.732A1.878,1.878,0,0,1,7.866,17.1Z" transform="translate(17.687 5.14) rotate(45)"/>
  </g>
</svg>
