<svg id="Icon_material-play-circle-outline" data-name="Icon material-play-circle-outline" xmlns="http://www.w3.org/2000/svg" width="59" height="58" viewBox="0 0 59 58">
  <path id="Icon_material-play-circle-outline-2" data-name="Icon material-play-circle-outline" d="M26.6,45.05,44.3,32,26.6,18.95ZM32.5,3C16.216,3,3,15.992,3,32S16.216,61,32.5,61,62,48.008,62,32,48.784,3,32.5,3Zm0,52.2A23.434,23.434,0,0,1,8.9,32,23.434,23.434,0,0,1,32.5,8.8,23.434,23.434,0,0,1,56.1,32,23.434,23.434,0,0,1,32.5,55.2Z" transform="translate(-3 -3)" fill="#fff"/>
</svg>
