<svg xmlns="http://www.w3.org/2000/svg" width="31.544" height="32" viewBox="0 0 31.544 32">
  <g id="Reaction_Chat_Heart" data-name="Reaction/Chat Heart" transform="translate(1 1)">
    <g id="White_Line" data-name="White Line" transform="translate(0 0)" fill="none" stroke="#f2f2f2" stroke-width="1">
      <circle cx="13" cy="13" r="13" stroke="none"/>
      <circle cx="13" cy="13" r="13.5" fill="none"/>
    </g>
    <path id="Union" d="M26.986,29.721A2.279,2.279,0,1,1,29.264,32,2.279,2.279,0,0,1,26.986,29.721Zm-7.792-3.247a13.216,13.216,0,1,1,6.722-6.083,4.559,4.559,0,1,1-6.722,6.083Z" transform="translate(-1 -1)" fill="#fff"/>
    <path id="Heart" d="M11.447.03C8.684,0,8.228,1.593,7.5,2.6,6.772,1.593,5.785-.02,3.553,0A3.468,3.468,0,0,0,0,3.673,7.429,7.429,0,0,0,1.724,7.985,29.206,29.206,0,0,0,7.5,13a29.206,29.206,0,0,0,5.776-5.015A7.429,7.429,0,0,0,15,3.673,3.443,3.443,0,0,0,11.447.03Z" transform="translate(6 7)"/>
  </g>
</svg>
