<svg xmlns="http://www.w3.org/2000/svg" viewBox="0 0 1313.22 1007.98"><g id="Layer_2" data-name="Layer 2"><g id="_ÎÓÈ_1" data-name="—ÎÓÈ_1"><circle cx="1043.18" cy="57.15" r="26.35" transform="translate(265.13 754.38) rotate(-45)" fill="#231f20"/><circle cx="1148.58" cy="57.15" r="26.35" transform="translate(65.56 443.89) rotate(-22.5)" fill="#231f20"/><circle cx="1253.98" cy="57.15" r="26.35" transform="translate(326.87 903.44) rotate(-45)" fill="#231f20"/><circle cx="1094.38" cy="109.85" r="26.35" transform="translate(41.27 427.16) rotate(-22.5)" fill="#231f20"/><circle cx="1199.78" cy="109.85" r="26.35" transform="translate(273.73 880.55) rotate(-45)" fill="#231f20"/><circle cx="1042.43" cy="162.55" r="26.35" transform="translate(190.38 784.72) rotate(-45)" fill="#231f20"/><circle cx="1147.83" cy="162.55" r="26.35" transform="translate(725.91 1242.33) rotate(-76.72)" fill="#231f20"/><circle cx="1253.23" cy="162.55" r="26.35" transform="translate(252.12 933.78) rotate(-45)" fill="#231f20"/><circle cx="1093.63" cy="215.25" r="26.35" fill="#231f20"/><circle cx="1199.03" cy="215.25" r="26.35" fill="#231f20"/><circle cx="1041.68" cy="267.95" r="26.35" transform="translate(-23.25 419.03) rotate(-22.5)" fill="#231f20"/><circle cx="1147.08" cy="267.95" r="26.35" transform="translate(622.75 1322.79) rotate(-76.72)" fill="#231f20"/><circle cx="1252.48" cy="267.95" r="26.35" transform="translate(-7.2 499.7) rotate(-22.5)" fill="#231f20"/><circle cx="326.54" cy="698.39" r="26.35" transform="translate(-242.41 178.12) rotate(-22.5)" fill="#231f20"/><circle cx="431.94" cy="698.39" r="26.35" transform="translate(-367.33 509.98) rotate(-45)" fill="#231f20"/><circle cx="537.34" cy="698.39" r="26.35" transform="translate(-265.83 1060.9) rotate(-76.72)" fill="#231f20"/><circle cx="377.74" cy="751.09" r="26.35" transform="translate(-420.47 487.09) rotate(-45)" fill="#231f20"/><circle cx="483.14" cy="751.09" r="26.35" transform="translate(-250.65 242.06) rotate(-22.5)" fill="#231f20"/><circle cx="325.79" cy="803.79" r="26.35" transform="translate(-531.35 936.19) rotate(-76.72)" fill="#231f20"/><circle cx="431.19" cy="803.79" r="26.35" transform="translate(-442.08 540.32) rotate(-45)" fill="#231f20"/><circle cx="536.59" cy="803.79" r="26.35" transform="translate(-368.99 1141.35) rotate(-76.72)" fill="#231f20"/><circle cx="376.99" cy="856.49" r="26.35" fill="#231f20"/><circle cx="482.39" cy="856.49" r="26.35" fill="#231f20"/><circle cx="325.04" cy="909.19" r="26.35" transform="translate(-634.51 1016.64) rotate(-76.72)" fill="#231f20"/><circle cx="430.44" cy="909.19" r="26.35" transform="translate(-315.17 233.93) rotate(-22.5)" fill="#231f20"/><circle cx="535.84" cy="909.19" r="26.35" transform="translate(-472.14 1221.8) rotate(-76.72)" fill="#231f20"/><rect x="650.09" y="779.04" width="166.8" height="127.48" fill="#2d6935"/><path d="M818.37,908H648.61V777.57H818.37Zm-166.81-2.94H815.42V780.52H651.56Z" fill="#231f20"/><rect x="634.54" y="779.04" width="166.8" height="127.48" fill="#fff6ed"/><polygon points="801.34 803.79 634.54 893.87 634.54 803.79 801.34 803.79" fill="#2d6935"/><path d="M867.41,931.27H599.57v-7.12a17.63,17.63,0,0,1,17.63-17.63H849.78a17.63,17.63,0,0,1,17.63,17.63Z" fill="#2d6935"/><path d="M868.88,932.74H598.1v-8.59a19.12,19.12,0,0,1,19.1-19.1H849.78a19.12,19.12,0,0,1,19.1,19.1Zm-267.83-3H865.94v-5.64A16.18,16.18,0,0,0,849.78,908H617.2a16.18,16.18,0,0,0-16.15,16.16Z" fill="#231f20"/><path d="M851.86,931.27H584v-7.12a17.63,17.63,0,0,1,17.63-17.63H834.23a17.63,17.63,0,0,1,17.63,17.63Z" fill="#fff6ed"/><path d="M802.82,908H633.06V777.57H802.82ZM636,905.05H799.87V780.52H636Z" fill="#231f20"/><path d="M853.33,932.74H582.55v-8.59a19.12,19.12,0,0,1,19.1-19.1H834.23a19.12,19.12,0,0,1,19.1,19.1Zm-267.83-3H850.38v-5.64A16.17,16.17,0,0,0,834.23,908H601.65a16.17,16.17,0,0,0-16.15,16.16Z" fill="#231f20"/><rect x="292.23" y="252.72" width="891.99" height="551.08" rx="26.16" fill="#2d6935"/><path d="M1158.07,805.27H318.39a27.67,27.67,0,0,1-27.64-27.63V278.87a27.67,27.67,0,0,1,27.64-27.63h839.68a27.67,27.67,0,0,1,27.63,27.63V777.64A27.67,27.67,0,0,1,1158.07,805.27ZM318.39,254.19a24.71,24.71,0,0,0-24.69,24.68V777.64a24.71,24.71,0,0,0,24.69,24.68h839.68a24.71,24.71,0,0,0,24.68-24.68V278.87a24.71,24.71,0,0,0-24.68-24.68Z" fill="#231f20"/><rect x="271.94" y="252.72" width="891.99" height="551.08" rx="26.16" fill="#fff6ed"/><rect x="292.28" y="273.51" width="851.31" height="459.71" fill="#fbb033"/><path d="M1137.78,805.27H298.1a27.66,27.66,0,0,1-27.63-27.63V278.87a27.66,27.66,0,0,1,27.63-27.63h839.68a27.66,27.66,0,0,1,27.63,27.63V777.64A27.66,27.66,0,0,1,1137.78,805.27ZM298.1,254.19a24.71,24.71,0,0,0-24.68,24.68V777.64a24.71,24.71,0,0,0,24.68,24.68h839.68a24.71,24.71,0,0,0,24.68-24.68V278.87a24.71,24.71,0,0,0-24.68-24.68Z" fill="#231f20"/><path d="M1145.07,734.69H290.81V272h854.26Zm-851.31-2.94h848.36V275H293.76Z" fill="#231f20"/><circle cx="717.94" cy="767.8" r="8.14" transform="translate(-194.27 1290.13) rotate(-76.72)" fill="#231f20"/><rect x="119.21" y="736.56" width="116.97" height="164.34" fill="#fbb033"/><path d="M177.8,811.45a25.51,25.51,0,1,1,25.51-25.51A25.54,25.54,0,0,1,177.8,811.45Zm0-49.06a23.55,23.55,0,1,0,23.54,23.55A23.58,23.58,0,0,0,177.8,762.39Z" fill="#2d6935"/><rect x="146.46" y="828.84" width="62.68" height="5.97" fill="#ef4647"/><rect x="146.46" y="843.02" width="62.68" height="5.97" fill="#ef4647"/><rect x="146.46" y="855.58" width="62.68" height="5.97" fill="#ef4647"/><path d="M997.69,849.28h8.57l-.11,10.77,9.23-5.5,4.28,7.69-9.56,5.17,9.56,5.27-4.28,7.69-9.34-5.49.22,10.66h-8.57l.22-10.77-9.34,5.49-4.29-7.58,9.45-5.27-9.45-5.17,4.29-7.8,9.34,5.61Z" fill="#2d6935"/><path d="M1071.08,849.28h8.57l-.11,10.77,9.23-5.5,4.28,7.69-9.56,5.17,9.56,5.27-4.28,7.69-9.34-5.49.22,10.66h-8.57l.22-10.77-9.34,5.49-4.29-7.58,9.45-5.27-9.45-5.17,4.29-7.8,9.34,5.61Z" fill="#2d6935"/><path d="M1144.47,849.28H1153l-.11,10.77,9.23-5.5,4.28,7.69-9.56,5.17,9.56,5.27-4.28,7.69-9.34-5.49.22,10.66h-8.57l.22-10.77-9.34,5.49-4.28-7.58,9.44-5.27-9.44-5.17,4.28-7.8,9.34,5.61Z" fill="#2d6935"/><path d="M1217.86,849.28h8.57l-.11,10.77,9.23-5.5,4.28,7.69-9.56,5.17,9.56,5.27-4.28,7.69-9.34-5.49.22,10.66h-8.57l.22-10.77-9.34,5.49-4.28-7.58,9.45-5.27-9.45-5.17,4.28-7.8,9.34,5.61Z" fill="#2d6935"/><path d="M1291.25,849.28h8.57l-.11,10.77,9.23-5.5,4.28,7.69-9.56,5.17,9.56,5.27-4.28,7.69-9.34-5.49.22,10.66h-8.57l.22-10.77-9.34,5.49-4.28-7.58,9.45-5.27-9.45-5.17,4.28-7.8,9.34,5.61Z" fill="#2d6935"/><rect x="738.17" y="590.51" width="358.63" height="66.19" fill="#fff"/><path d="M1089.89,651.36H728.31V582.22h361.58Zm-358.63-3H1087V585.17H731.26Z" fill="#231f20"/><polygon points="1093.18 720.93 989.01 619.48 1005.17 763.98 1035.11 732.6 1059.78 783.03 1074.7 775.73 1050.03 725.3 1093.18 720.93" fill="#231f20"/><path d="M557.38,318.68H17.2A15.74,15.74,0,0,0,1.47,334.41v26.9H573.11v-26.9A15.74,15.74,0,0,0,557.38,318.68Z" fill="#ef4647"/><rect x="177.7" y="390.76" width="273.61" height="314.1" fill="#fff6ed"/><rect x="45.14" y="493.52" width="85.37" height="11.48" fill="#ef4647"/><rect x="198.15" y="413.42" width="62.98" height="17.3" fill="#fbb033"/><rect x="52.33" y="510.59" width="70.69" height="11.48" fill="#ef4647"/><rect x="197.81" y="455" width="233.37" height="6.56" fill="#fbb033"/><rect x="197.81" y="468.96" width="233.37" height="6.56" fill="#fbb033"/><rect x="197.81" y="441.04" width="233.37" height="6.56" fill="#fbb033"/><rect x="50.06" y="546.17" width="75.86" height="3.13" fill="#fbb033"/><rect x="56.71" y="554.04" width="62.55" height="2.56" fill="#fbb033"/><rect x="66.55" y="561.65" width="42.86" height="2.56" fill="#fbb033"/><path d="M574.58,684.79H0V334.41a17.22,17.22,0,0,1,17.2-17.2H557.38a17.22,17.22,0,0,1,17.2,17.2ZM3,681.84H571.63V334.41a14.26,14.26,0,0,0-14.25-14.25H17.2A14.26,14.26,0,0,0,3,334.41Z" fill="#231f20"/><path d="M28.75,348.61a7.87,7.87,0,1,1,7.86-7.87A7.88,7.88,0,0,1,28.75,348.61Zm0-12.78a4.92,4.92,0,1,0,4.91,4.91A4.92,4.92,0,0,0,28.75,335.83Z" fill="#231f20"/><path d="M50.06,348.61a7.87,7.87,0,1,1,7.86-7.87A7.88,7.88,0,0,1,50.06,348.61Zm0-12.78A4.92,4.92,0,1,0,55,340.74,4.92,4.92,0,0,0,50.06,335.83Z" fill="#231f20"/><path d="M71.36,348.61a7.87,7.87,0,1,1,7.87-7.87A7.88,7.88,0,0,1,71.36,348.61Zm0-12.78a4.92,4.92,0,1,0,4.92,4.91A4.91,4.91,0,0,0,71.36,335.83Z" fill="#231f20"/><path d="M574.58,362.79H0V334.41a17.22,17.22,0,0,1,17.2-17.2H557.38a17.22,17.22,0,0,1,17.2,17.2ZM3,359.84H571.63V334.41a14.26,14.26,0,0,0-14.25-14.25H17.2A14.26,14.26,0,0,0,3,334.41Z" fill="#231f20"/><rect x="1293.79" y="564.39" width="16.27" height="16.27" fill="#fbb033"/><rect x="1293.79" y="600.36" width="16.27" height="16.27" fill="#fbb033"/><rect x="153.27" y="238.89" width="16.27" height="16.27" fill="#fbb033"/><rect x="564.97" width="16.27" height="16.27" fill="#fbb033"/><rect x="932.96" y="991.71" width="16.27" height="16.27" fill="#fbb033"/><rect x="1257.37" y="564.39" width="16.27" height="16.27" fill="#fbb033"/><rect x="1257.37" y="600.36" width="16.27" height="16.27" fill="#2d6935"/><rect x="869.96" y="95.86" width="16.27" height="16.27" fill="#2d6935"/><rect x="729.79" y="204.69" width="571.63" height="322" fill="#fff6ed"/><rect x="814.46" y="466.01" width="118.5" height="31.82" fill="#2d6935"/><path d="M976.92,448H770.51V418.21H976.92Zm-203.46-3H974V421.16H773.46Z" fill="#231f20"/><path d="M976.92,394.5H770.51V364.74H976.92Zm-203.46-2.95H974V367.69H773.46Z" fill="#231f20"/><rect x="823.23" y="242.42" width="109.74" height="24.61" fill="#ef4647"/><rect x="776.36" y="284.47" width="203.47" height="6.92" fill="#fbb033"/><rect x="794.21" y="297.52" width="167.77" height="5.67" fill="#fbb033"/><rect x="820.61" y="310.01" width="114.97" height="5.67" fill="#fbb033"/><rect x="770.51" y="352.04" width="51.25" height="5.67" fill="#fbb033"/><rect x="770.51" y="406.3" width="51.25" height="5.67" fill="#fbb033"/><path d="M1285.69,162.06H745.52a15.72,15.72,0,0,0-15.73,15.72v26.91h571.63V177.78A15.72,15.72,0,0,0,1285.69,162.06Z" fill="#2d6935"/><path d="M1302.9,528.16H728.31V177.78a17.23,17.23,0,0,1,17.21-17.2h540.17a17.23,17.23,0,0,1,17.21,17.2Zm-571.64-2.95H1300V177.78a14.27,14.27,0,0,0-14.26-14.25H745.52a14.27,14.27,0,0,0-14.26,14.25Z" fill="#231f20"/><rect x="729.79" y="203.21" width="571.63" height="2.95" fill="#231f20"/><path d="M757.06,192a7.87,7.87,0,1,1,7.87-7.86A7.87,7.87,0,0,1,757.06,192Zm0-12.78a4.92,4.92,0,1,0,4.92,4.92A4.92,4.92,0,0,0,757.06,179.2Z" fill="#231f20"/><path d="M778.37,192a7.87,7.87,0,1,1,7.86-7.86A7.87,7.87,0,0,1,778.37,192Zm0-12.78a4.92,4.92,0,1,0,4.92,4.92A4.92,4.92,0,0,0,778.37,179.2Z" fill="#231f20"/><path d="M799.68,192a7.87,7.87,0,1,1,7.86-7.86A7.88,7.88,0,0,1,799.68,192Zm0-12.78a4.92,4.92,0,1,0,4.91,4.92A4.93,4.93,0,0,0,799.68,179.2Z" fill="#231f20"/><rect x="1015.61" y="222.53" width="268.11" height="280.16" fill="#ef4647"/><path d="M1111.41,284.53l-.44-2.6c52.42-8.87,68.33-26.8,82.39-61.21l2.45,1C1181.37,257.05,1165.06,275.46,1111.41,284.53Z" fill="#fbb033"/><path d="M1205.07,504.23l-2.49-.87c12.94-36.87,52.08-57.55,82.35-58.29l.06,2.64C1255.61,448.43,1217.61,468.48,1205.07,504.23Z" fill="#fbb033"/><path d="M1049.69,248.26c-9.83,0-21.43-1.37-35.3-4.55l.6-2.57c55.26,12.69,73-3.28,86.47-20.72l2.09,1.61C1093.45,235.13,1080.12,248.26,1049.69,248.26Z" fill="#fbb033"/><path d="M1015.1,425.28l-2.24-1.39c22.15-35.5,57.75-61.73,97.68-72,8.19-2.1,18.94-4.23,29.58-2a36.84,36.84,0,0,1,7.65,2.49,155.21,155.21,0,0,1,24.5-9.27c6.5-1.89,13.2-3.56,19.68-5.18,15.56-3.87,31.64-7.88,46-15.33,15.35-8,31.58-19.75,46.48-67.55l2.52.79c-15.2,48.77-31.94,60.88-47.78,69.1-14.62,7.59-30.87,11.64-46.57,15.55-6.46,1.61-13.13,3.27-19.59,5.16a154.63,154.63,0,0,0-22.28,8.25,28,28,0,0,1,12.54,14c5.59,14.78-4.52,31.08-17.41,39.54-5.84,3.84-11.23,5.86-16.46,6.18-6.61.4-12.84-2.22-16.28-6.85-5.71-7.69-2.83-18.59,1.77-26.23,6.42-10.67,16.27-19.5,29.8-26.64a34,34,0,0,0-5.1-1.47c-10.1-2.11-20.47-.05-28.38,2C1071.92,364.55,1036.89,390.36,1015.1,425.28Zm132.7-70c-14.08,7.09-24.2,15.9-30.66,26.64-4.16,6.91-6.84,16.66-1.91,23.3,2.91,3.92,8.25,6.15,14,5.79,4.76-.29,9.72-2.18,15.18-5.76,12-7.88,21.48-22.91,16.38-36.4C1158.64,363.21,1153.93,358.39,1147.8,355.32Z" fill="#fbb033"/><path d="M1014.49,369.63l-1.94-1.78a184.33,184.33,0,0,1,100.55-56.16c8-1.51,16.2-2.37,24.14-3.19a259.9,259.9,0,0,0,27-3.8c51.33-11,80.61-39.87,84.69-83.6l2.63.25c-4.2,45-34.2,74.71-86.77,85.93a259.89,259.89,0,0,1-27.33,3.84c-7.88.82-16,1.67-23.92,3.16A181.67,181.67,0,0,0,1014.49,369.63Z" fill="#fbb033"/><path d="M1087,504.25l-2.47-.91c5.35-14.46,22.4-20.18,35.39-20.69,4.27-.17,8.63,0,12.85.06,9.5.25,19.34.52,28.31-2.53,14.41-4.89,24.64-17.48,34.53-29.65,10.41-12.83,21.19-26.09,37-30.76,7.09-2.1,14.55-2.2,21.76-2.31,4.07-.06,8.28-.12,12.34-.54a39.21,39.21,0,0,0,17.57-5.91l1.47,2.19a42,42,0,0,1-18.77,6.35c-4.18.43-8.45.49-12.57.55-7,.1-14.31.21-21,2.2-15,4.44-25.07,16.8-35.71,29.89-10.12,12.46-20.59,25.35-35.72,30.49-9.42,3.2-19.49,2.93-29.23,2.67-4.18-.11-8.5-.23-12.68-.07C1107.8,485.76,1091.85,491,1087,504.25Z" fill="#fbb033"/><path d="M1015.05,295.76l-2.13-1.56c9.18-12.56,27.35-23.66,48.6-29.69,6.25-1.77,14.55-2.76,22.57-3.71,6.12-.73,11.89-1.42,16.58-2.41,20.49-4.34,36.58-17.06,47.83-37.8l2.32,1.26c-11.63,21.45-28.32,34.61-49.61,39.12-4.8,1-10.63,1.71-16.81,2.45-7.92.94-16.11,1.91-22.16,3.63C1041.54,272.92,1023.89,283.65,1015.05,295.76Z" fill="#fbb033"/><path d="M1029.67,504.05l-2.59-.51c7.8-40.19,18.38-53.75,26.72-61.07,11.53-10.13,30.89-12.74,47.07-6.35,3,1.19,6,2.69,8.78,4.13,5.11,2.61,9.94,5.08,15.31,6,11.76,1.94,25-4.37,35.37-16.89,4.74-5.7,8.72-12.18,12.56-18.44A182.94,182.94,0,0,1,1184,394.22c10.69-13.72,24.08-21.08,36.76-20.21,4.75.33,9.3,1.79,13.7,3.2,2.41.77,4.9,1.57,7.37,2.16a50.91,50.91,0,0,0,42.31-9.26l1.63,2.07a53.63,53.63,0,0,1-44.56,9.76c-2.56-.62-5.1-1.43-7.56-2.22-4.44-1.43-8.64-2.77-13.07-3.08-16.72-1.16-29.7,13-34.5,19.2a179.8,179.8,0,0,0-10.95,16.44c-3.89,6.33-7.92,12.89-12.78,18.74-11,13.24-25.16,19.89-37.83,17.8-5.78-.95-11-3.63-16.08-6.22-2.78-1.42-5.65-2.88-8.55-4-15.3-6-33.54-3.62-44.36,5.88C1047.51,451.5,1037.32,464.64,1029.67,504.05Z" fill="#fbb033"/><path d="M1254.06,349l-.33-2.62c.18,0,17.94-2.41,30.29-15l1.89,1.85C1272.9,346.5,1254.82,348.91,1254.06,349Z" fill="#fbb033"/><rect x="476.49" y="390.76" width="218.8" height="82.09" fill="#fff6ed"/><rect x="476.49" y="485.48" width="218.8" height="82.09" fill="#fff6ed"/><rect x="476.49" y="582.63" width="218.8" height="82.09" fill="#fff6ed"/><rect x="552.25" y="410.1" width="109.09" height="7.39" fill="#fbb033"/><rect x="552.25" y="425.82" width="109.09" height="7.39" fill="#fbb033"/><rect x="552.25" y="441.55" width="89.17" height="7.39" fill="#fbb033"/><rect x="552.25" y="505.95" width="109.09" height="7.39" fill="#fbb033"/><rect x="552.25" y="521.68" width="109.09" height="7.39" fill="#fbb033"/><rect x="552.25" y="537.41" width="89.17" height="7.39" fill="#fbb033"/><rect x="553.92" y="604.25" width="109.09" height="7.39" fill="#fbb033"/><rect x="553.92" y="619.97" width="109.09" height="7.39" fill="#fbb033"/><rect x="553.92" y="635.7" width="89.17" height="7.39" fill="#fbb033"/><path d="M435.27,291.89h57.4s-3.09-33.45,23.65-60.19L465.21,108.05V224.6a7.05,7.05,0,1,1-2.48,0V108.05L411.62,231.7C438.36,258.44,435.27,291.89,435.27,291.89Z" fill="#231f20"/><rect x="432.74" y="294.06" width="62.55" height="11.73" fill="#231f20"/><path d="M214.16,151.64h-17v-17h17Zm-15-2H212.2V136.61H199.13Z" fill="#ef4647"/><path d="M711.9,54.24h-17v-17h17Zm-15-2h13.06V39.21H696.87Z" fill="#ef4647"/><path d="M545.68,108.94a210.09,210.09,0,0,1-74.52-13.68l.69-1.84C535.94,117.55,593.24,105,630,90.18c39.9-16.05,65-38.12,65.2-38.34l1.31,1.47c-.25.22-25.51,22.48-65.71,38.67C608.78,100.85,579.43,108.94,545.68,108.94Z" fill="#ef4647"/><path d="M213.89,136.3,212.47,135c.24-.25,24.87-26,67.1-44.53,39-17.07,101.36-31.3,177.22-2.12l-.7,1.84C380.85,61.19,319,75.3,280.36,92.22,238.49,110.57,214.14,136.05,213.89,136.3Z" fill="#ef4647"/><rect x="386.44" y="-8.55" width="2.95" height="146.4" transform="translate(197.1 408.52) rotate(-70.44)" fill="#231f20"/><rect x="538.55" y="45.51" width="2.95" height="146.4" transform="translate(247.33 587.81) rotate(-70.44)" fill="#231f20"/><path d="M313.66,38.26a5.61,5.61,0,1,1,3.4,7.16A5.61,5.61,0,0,1,313.66,38.26Z" fill="#231f20"/><circle cx="609" cy="143.22" r="5.61" transform="translate(-2.48 275.44) rotate(-25.43)" fill="#231f20"/><path d="M472.47,100.18h-17v-17h17Zm-15-2H470.5V85.15H457.44Z" fill="#ef4647"/><rect x="495.29" y="410.1" width="38.67" height="38.67" fill="#2d6935"/><rect x="495.29" y="506.05" width="38.67" height="38.67" fill="#2d6935"/><rect x="495.29" y="604.34" width="38.67" height="38.67" fill="#2d6935"/><rect x="45.46" y="390.76" width="85.06" height="85.06" fill="#2d6935"/><path d="M65.41,465.35c-.25,1.49.12,5.74-2,10.46h37.33a38.08,38.08,0,0,1-4.86-17.56c12.84-.12,19.22-8.7,18.69-25.49S107,397.14,89.65,397.58,59,406.45,60,428,66.79,457.12,65.41,465.35Z" fill="#fff6ed"/><path d="M64.86,456.92A23.89,23.89,0,0,0,73.31,449a39.06,39.06,0,0,0,3.31-7.11A2.5,2.5,0,0,0,75,438.63a6.87,6.87,0,0,1-4.42-4.57c-1.85-5.4.93-8.45,3.72-8.69,2.62-.23,5.28,2.11,6.23,5.76a.71.71,0,0,0,.85.54l2.42-.6a.71.71,0,0,0,.54-.8c-.4-2.37-1.57-10.65.93-12.76,2.92-2.47,24-4.62,25.69-5s-3.19-18.82-27.29-16S57.05,420,59.13,432.48A219.54,219.54,0,0,0,64.86,456.92Z" fill="#231f20"/><path d="M103.34,437.8a.77.77,0,0,1-.09-1.53l4.57-.55-1.89-9a.77.77,0,0,1,.59-.91.76.76,0,0,1,.91.6l2.07,9.79a.83.83,0,0,1-.13.61.77.77,0,0,1-.54.31l-5.4.64Z" fill="#231f20"/><rect x="244.82" y="497.58" width="132.05" height="134.46" fill="#ef4647"/><path d="M285.76,649.61a4.31,4.31,0,1,1,4.3,4.3A4.31,4.31,0,0,1,285.76,649.61Z" fill="#2d6935"/><circle cx="309.1" cy="649.61" r="4.31" fill="#2d6935"/><path d="M323.83,649.61a4.31,4.31,0,1,1,4.3,4.3A4.3,4.3,0,0,1,323.83,649.61Z" fill="#2d6935"/><polygon points="223.75 586.77 201.09 564.11 224.33 540.87 226.42 542.95 205.26 564.11 225.83 584.69 223.75 586.77" fill="#231f20"/><polygon points="402.55 586.77 400.46 584.69 421.63 563.53 401.05 542.95 403.14 540.87 425.8 563.53 402.55 586.77" fill="#231f20"/></g></g></svg>